PathFileType	4	(X/Y/Z)	C:\Github\BTS_project\Data\sports2d_results\test4 Exam_2026-03-06_143128_tvc2_Sports2D\test4 Exam_2026-03-06_143128_tvc2_Sports2D_px_person00.trc
DataRate	CameraRate	NumFrames	NumMarkers	Units	OrigDataRate	OrigDataStartFrame	OrigNumFrames
30.0	30.0	8	22	m	30.0	0	321
Frame#	Time	Hip			RHip			RKnee			RAnkle			RBigToe			RSmallToe			RHeel			LHip			LKnee			LAnkle			LBigToe			LSmallToe			LHeel			Neck			Head			Nose			RShoulder			RElbow			RWrist			LShoulder			LElbow			LWrist			
		X1	Y1	Z1	X2	Y2	Z2	X3	Y3	Z3	X4	Y4	Z4	X5	Y5	Z5	X6	Y6	Z6	X7	Y7	Z7	X8	Y8	Z8	X9	Y9	Z9	X10	Y10	Z10	X11	Y11	Z11	X12	Y12	Z12	X13	Y13	Z13	X14	Y14	Z14	X15	Y15	Z15	X16	Y16	Z16	X17	Y17	Z17	X18	Y18	Z18	X19	Y19	Z19	X20	Y20	Z20	X21	Y21	Z21	X22	Y22	Z22
0	0.0	336.7503023897893	705.4901765295876	0.0	307.09793092690273	711.7328275883874	0.0	313.3404747942999	828.7821250290532	0.0	327.38646560220207	933.3460134066511	0.0	332.06836022579853	964.559188799994	0.0	314.9010793310332	961.4378821543919	0.0	336.750316322947	944.2707888751333	0.0	367.9634543926908	708.6112958721833	0.0	385.13074552482504	819.4178258172302	0.0	383.5701154435168	911.4964738462634	0.0	378.8881191005853	950.5132662441164	0.0	396.0553863251718	944.2707122615288	0.0	380.44880939827453	922.4214953117073	0.0	330.50788671144795	536.9392943552876	0.0	321.14383792970807	457.3458190179458	0.0	324.265149566208	508.84745754830476	0.0	277.44553891637173	565.0310818889936	0.0	260.27820626398074	639.9425561474648	0.0	249.35360731465414	711.7327730013535	0.0	391.3734143525969	560.3490234340003	0.0	408.5406454560675	638.3819843607525	0.0	413.2227297243934	708.6115962051222	0.0
1	0.033437499999999995	337.0129831612133	705.1699822033488	0.0	306.8842917942217	710.9241702337483	0.0	313.0380500798841	828.6933499194496	0.0	327.627047488353	933.0362585124888	0.0	332.90799060528883	964.7027886314876	0.0	315.2088938863069	961.5308017864807	0.0	336.361684865816	944.4323422004693	0.0	368.04312420461474	708.3527645138338	0.0	385.30154699947553	819.9089773304229	0.0	383.7404764905031	912.2692604370014	0.0	377.81460900877204	951.2174936382735	0.0	395.4340455577627	944.9310538064296	0.0	380.61548813970575	923.1281400788486	0.0	330.69452190324506	537.1292319815109	0.0	320.9334390935256	457.2299702043382	0.0	324.5262962288846	509.1522323959202	0.0	277.31267894024694	565.1623540089723	0.0	260.2045177786135	640.294999417983	0.0	249.86065704228008	711.9891715592332	0.0	391.4419478968264	559.9697716410907	0.0	408.4871127690779	638.315531801217	0.0	413.2447132692392	708.8899923823581	0.0
2	0.06687499999999999	337.60597942273574	704.9434419712136	0.0	306.91196391119075	710.0561797072795	0.0	312.67020830496745	828.6808780894785	0.0	327.7542608774027	933.1938142088993	0.0	333.5855896224134	964.8475236993729	0.0	315.3472280840555	961.6680144696506	0.0	336.0102976176233	944.6439720951059	0.0	368.0915957640873	708.0783375970981	0.0	385.5911964836274	820.4634971213015	0.0	384.0508365575467	913.307433826369	0.0	377.30515891371766	951.9372766150964	0.0	394.90732402670835	945.8935386354598	0.0	380.98200968626196	923.8666123061201	0.0	330.85174446833304	537.3684137600875	0.0	320.8564399803594	457.1053838336415	0.0	324.7082909223922	509.3345138347561	0.0	277.4671017514093	565.3086295924592	0.0	260.3882106214713	640.4520799859843	0.0	250.6015664957497	712.0993094653379	0.0	391.3725163281959	559.5079412572153	0.0	408.45722079674636	638.1964895720665	0.0	413.06656135565237	709.1820186570619	0.0
3	0.10031249999999999	338.3328751123387	705.0614110203101	0.0	307.28214400059784	709.4552355595597	0.0	312.48413007508157	828.8154526754739	0.0	327.7219671571338	933.7977923799217	0.0	333.6492006711263	964.815875566874	0.0	315.18640843053197	961.8045867861481	0.0	335.9639070168837	944.8048569450357	0.0	368.2099934048498	707.8789188915806	0.0	385.8593969879795	820.9098400688737	0.0	384.3606038507555	914.1936851167687	0.0	377.9072933922563	952.3388444980881	0.0	394.99499644916193	946.8184282450009	0.0	381.4032966705113	924.1891008421838	0.0	331.0315030263475	537.6283516520276	0.0	320.9605109767777	457.0584557515699	0.0	324.6950238038869	509.3374798452005	0.0	277.9518522321921	565.4271013042104	0.0	260.83774215517525	640.4539474723542	0.0	251.35938872559268	711.9470704078572	0.0	391.1803398161635	559.1273719295782	0.0	408.622536732751	638.0830775960866	0.0	412.7213704598828	709.369922228733	0.0
4	0.13374999999999998	338.66717486596144	705.5050573533282	0.0	307.72683582633783	709.2533977043487	0.0	312.6596121200938	829.0366018916309	0.0	327.6285137273447	934.1554528905541	0.0	333.1361684288058	964.5422914792232	0.0	314.87826760775204	961.8767889425033	0.0	336.1257092606867	944.8411580374201	0.0	368.5050893942987	707.7671576992153	0.0	385.9791961409936	821.1762592542739	0.0	384.50711595938213	914.2577905737351	0.0	378.8991773193189	952.3558589084734	0.0	395.73799577445874	947.0548829436909	0.0	381.5985325063261	923.5118637169385	0.0	331.3249898186275	537.803703514623	0.0	321.1339756574776	457.1239581486265	0.0	324.47287623548857	509.45001843909813	0.0	278.38043913122334	565.4482372336514	0.0	261.2327040563562	640.5371022308996	0.0	251.82202707983598	711.6349273695241	0.0	391.0116951008752	558.963952459216	0.0	409.0102754902207	638.1403749534888	0.0	412.4576800915666	709.3960375790887	0.0
5	0.1671875	338.52634292481844	705.8439842269653	0.0	307.86748511579265	709.2541531377416	0.0	313.0795549704465	829.2258214984731	0.0	327.57356864258594	933.8002217771566	0.0	332.81951389184235	964.3007420810993	0.0	314.75278218453116	961.9302297378582	0.0	336.01566527735224	944.8738630260178	0.0	368.909951744109	707.7137354100794	0.0	386.062640490671	821.3575153572065	0.0	384.58426642063273	913.5502197280275	0.0	379.0189814631623	952.2856817093545	0.0	396.3406399012951	946.5497803576525	0.0	381.58548855356656	922.2224644899597	0.0	331.70006646231286	537.7343008347597	0.0	321.26994646304354	457.2318187662031	0.0	324.25449819167153	509.9337638162392	0.0	278.4191725627639	565.3203441462376	0.0	261.42803864756854	640.6999359251278	0.0	251.95964957133953	711.4478440114069	0.0	390.9382018429232	558.937934665551	0.0	409.3592947180424	638.4532876445483	0.0	412.31374511657225	709.310652654779	0.0
6	0.20062499999999997	338.3033581709177	705.8411952934662	0.0	307.70748184938145	709.3512684116223	0.0	313.5721216666736	829.4451998582203	0.0	327.57873834380086	933.1668477987052	0.0	333.0863799609675	964.2334522275838	0.0	314.89754313450527	962.074828547644	0.0	335.6177497581097	945.0219912173538	0.0	369.29317019418903	707.7942476559762	0.0	386.1764748929351	821.4547452563694	0.0	384.67930701419664	912.9979518734955	0.0	378.62634704937955	952.1896771000323	0.0	396.35155455034993	946.093438617481	0.0	381.59017844230686	921.7781741683823	0.0	332.0030855314046	537.4302392476966	0.0	321.35950892698327	457.3250597596987	0.0	324.31211868716804	510.52499518505414	0.0	278.3864501545521	565.1026831453663	0.0	261.7650398233602	640.7576126228095	0.0	251.92673573491163	711.5400444627362	0.0	390.93915549175426	558.9433244920722	0.0	409.4887798394278	638.8069202691335	0.0	412.0131907512059	709.1939957916711	0.0
7	0.23406249999999995	338.11986292309075	705.7300678709686	0.0	307.5455127998881	709.4116809049228	0.0	313.8929544866079	829.7156587952319	0.0	327.6516099387077	932.8416310987154	0.0	333.37418696631903	964.1361325965676	0.0	315.1247298823598	962.287592560985	0.0	335.37878215308217	945.175813048977	0.0	369.50841829351833	707.9472798345407	0.0	386.2070958099261	821.4299063740386	0.0	384.6381565803659	913.0199442891587	0.0	378.8703435596432	951.9744786325133	0.0	396.18175421930596	946.2430370424562	0.0	381.6682228759774	922.6987602867463	0.0	332.1256110476355	537.1522144018137	0.0	321.3961893530813	457.358514647939	0.0	324.61684342125284	510.8957896847094	0.0	278.7818373854706	564.9541893000276	0.0	262.39249026905344	640.7161279102761	0.0	251.86588103700072	711.7865553927845	0.0	391.02987798476863	558.9627513777364	0.0	409.4217004723347	638.9020966548543	0.0	411.53552858219405	709.138597308639	0.0
